<svg xmlns="http://www.w3.org/2000/svg" viewBox="0 0 150 100">
<!-- SVG created with Arrow, by QuiverAI (https://quiver.ai) -->
  <style type="text/css">.cls-0 {fill:#0099A1;}
.cls-1 {fill:#FFFFFF;}
.cls-2 {fill:#5DD39E;}</style>
  <rect class="cls-0" width="150" height="100.3"/>
  <path class="cls-1" d="m1.5 87.7c0-5.7 4.2-11.6 10.4-11.6 3.7 0 6.5 1.2 8.7 3.7 0.5 0.5 0.4 1 0 1.4l-2 1.9c-0.4 0.4-1 0.4-1.4 0-1.3-1.4-3-2.2-5.2-2.2-3.7 0-6.2 2.7-6.2 6.6 0 3 2.3 6.8 6.2 6.8 2.3 0.1 4.2-0.8 5.2-2 0.4-0.5 1-0.8 1.5-0.3l1.8 1.4c0.6 0.5 0.6 1 0.2 1.5-2 2.3-5 3.8-8.7 3.8-6.9 0-10.5-4.8-10.5-11z"/>
  <path class="cls-1" d="m23.2 97v-20.4c0-0.4 0.4-0.9 0.9-0.9h2.3c0.4 0 0.9 0.4 0.9 0.9v7.5c0.9-0.8 2.3-1.9 4.6-1.9 3.4 0 6.3 2.2 6.3 6.2v8.6c0 0.4-0.5 0.9-0.9 0.9h-2.4c-0.5 0-1-0.4-1-0.9v-7c0-2.3-1.3-3.7-3.3-3.7-1.8 0-3.2 1.4-3.3 3.1v7.6c0 0.5-0.5 0.9-0.9 0.9h-2.4c-0.4 0-0.9-0.4-0.8-0.9z"/>
  <path class="cls-1" d="m40.2 90.2c0-4.4 3.2-8 7.5-8 2.1 0 3.7 0.6 4.9 1.9v-0.5c0-0.4 0.4-0.9 0.9-0.9h2.4c0.5 0 0.9 0.4 1 0.9v13.4c0 0.5-0.4 0.9-0.9 0.9h-2.4c-0.5 0-1-0.4-0.9-1.4-1.1 1-2.6 1.9-4.9 1.9-4.5 0-7.6-3.3-7.6-8.2zm12.5 0.1c0-2.1-1.8-4-4.1-4-2 0-4.1 1.7-4.1 4 0 2.1 1.7 4 4 4s4.2-1.7 4.2-4z"/>
  <path class="cls-1" d="m59.1 78c0-1.4 1-2.5 2.5-2.5 1.4 0 2.5 1 2.5 2.5 0 1.4-1.1 2.5-2.5 2.5s-2.5-1.1-2.5-2.5zm0.4 19v-13.4c0-0.4 0.5-0.9 0.9-0.9h2.4c0.5 0 1 0.4 1 0.9v13.4c0 0.6-0.5 0.9-1 0.9h-2.3c-0.5 0-1-0.3-1-0.9z"/>
  <path class="cls-1" d="m66.5 97v-13.4c0-0.5 0.5-0.9 0.9-0.9h2.2c0.5 0 1 0.4 1 0.9v0.6c1.1-0.9 2.5-1.9 4.4-1.9 0.6 0 0.9 0.5 0.9 0.9v2.4c0 0.5-0.4 0.9-0.9 0.8-0.3-0.1-0.7-0.1-1-0.1-1.9 0-3.4 1.2-3.4 3.6v7.1c0 0.5-0.5 0.9-0.9 0.9h-2.3c-0.5 0-0.9-0.4-0.9-0.9z"/>
  <path class="cls-1" d="m79.5 96.9v-19.2c0-0.5 0.4-1 0.9-1h9.2c3.7 0 6.6 2 6.6 5.8 0 1.9-1 3.6-2.3 4.5 1.6 0.6 3 2.4 3 5 0 3.1-2.4 5.9-6.4 5.9h-10.1c-0.5 0-1-0.4-0.9-1zm4.4-11.4h5.5c1.3 0 2.4-0.8 2.4-2.2 0-1.3-1-2.4-2.4-2.3h-5.5v4.5zm0 8.5h6c1.6 0 2.7-0.9 2.7-2.4 0-1.3-1-2.3-2.7-2.3h-6v4.7z"/>
  <path class="cls-1" d="m98.4 90.3c0-4.5 3.5-8 8.1-8 4.9 0 8.6 3.3 8.6 8s-3.5 8-8.6 8c-4.4 0.1-8.1-3.2-8.1-8zm12.3 0c0-2.1-1.7-4-4.1-4-1.9 0-3.8 1.7-3.8 4 0 2.1 1.7 4 3.8 4 2.5 0.1 4.1-1.7 4.1-4z"/>
  <path class="cls-1" d="m116.6 90.3c0-4.5 3.5-8 8-8 4.7 0 8.8 3.3 8.8 8s-3.5 8-8.5 8c-4.5 0.1-8.3-3-8.3-8zm12.4 0c0-2.1-1.7-4-4.1-4-1.9 0-4 1.7-4 4 0 2.1 1.7 4 3.9 4 2.5 0.1 4.2-1.7 4.2-4z"/>
  <path class="cls-1" d="m135.4 97.9c-0.3 0 0.1 0 0 0z"/>
  <path class="cls-1" d="m135.5 75.6h3c0.6 0.2 0.7 0.6 0.7 1v11.3l4.7-4.9c0.2-0.2 0.5-0.4 0.8-0.4h2.7c0.7 0 0.8 0.7 0.4 1.1l-4.5 5.4 5.1 7.6c0.3 0.4 0 1.2-0.6 1.2h-2.7c-0.3 0-0.7-0.1-1-0.5l-3.9-5.6c-0.2-0.3-0.6-0.4-0.8-0.1l-0.2 0.2v0.2 4.9c0 0.5-0.5 0.9-0.9 0.9h-2.1-0.8 0.1c-0.1-0.1-0.1-0.2-0.1-0.3v-21c0-0.5 0-0.9 0.1-1z"/>
  <path class="cls-1" d="m82.1 47.6h-14.2c-10.4-0.1-17.9-5.8-18.3-16.7l-0.1-5.4c0-1.9 1.6-3.7 3.8-3.7 1.8 0 3.5 1.6 3.5 3.7v4.2c0.1 5.4 4.5 10.2 10.5 10.2h16.2c5.6 0 10.4-3.8 10.4-10.1v-4.3c0-1.9 1.6-3.7 3.8-3.7 1.9-0.1 3.6 1.6 3.5 3.7v3.8c-0.2 11.3-7.3 18.2-19.1 18.3z"/>
  <path class="cls-1" d="m63.7 36.3c-2.1-0.6-4.9-3-4.9-6.8v-17.4c0-5.7 5-10.7 10.8-10.7h13.8c5.2 0 9.8 4 9.8 6.5 0.2 2.5-2.9 4.2-4.5 1.6-0.8-1.6-2.8-3-5.1-3h-14.2c-2.9 0-5.7 2.3-5.7 5.6v24.2z"/>
  <path class="cls-1" d="m80.4 48.7v3.1c0 0.4 0.3 0.8 0.8 0.8 2.7 0.5 7.5 1.9 11.6 5 3.1 2.3 0.6 7-3.3 5.1-3.1-2.1-7.5-4.2-14.1-4.3-5.3 0-9.5 1.6-13.6 4.3-3.6 1.9-6.8-2.3-3.9-4.8 2.6-1.8 6.5-4.1 11.5-5.2 0.4 0 0.7-0.4 0.7-0.9v-3.1h10.3z"/>
  <path class="cls-2" d="m82.1 10h-11.2c-2.7 0-4.6 2.2-4.6 4.5v21.5h15.8c3.4 0 6.1-2.4 6.1-6v-14.1c0-3-2.7-5.9-6.1-5.9z"/>
</svg>
