<svg xmlns="http://www.w3.org/2000/svg" viewBox="42 0 66 66" role="img" aria-label="ChairBook">
  <rect x="42" y="0" width="66" height="66" rx="14" fill="#0099A1"/>
  <path fill="#FFFFFF" d="m82.1 47.6h-14.2c-10.4-0.1-17.9-5.8-18.3-16.7l-0.1-5.4c0-1.9 1.6-3.7 3.8-3.7 1.8 0 3.5 1.6 3.5 3.7v4.2c0.1 5.4 4.5 10.2 10.5 10.2h16.2c5.6 0 10.4-3.8 10.4-10.1v-4.3c0-1.9 1.6-3.7 3.8-3.7 1.9-0.1 3.6 1.6 3.5 3.7v3.8c-0.2 11.3-7.3 18.2-19.1 18.3z"/>
  <path fill="#FFFFFF" d="m63.7 36.3c-2.1-0.6-4.9-3-4.9-6.8v-17.4c0-5.7 5-10.7 10.8-10.7h13.8c5.2 0 9.8 4 9.8 6.5 0.2 2.5-2.9 4.2-4.5 1.6-0.8-1.6-2.8-3-5.1-3h-14.2c-2.9 0-5.7 2.3-5.7 5.6v24.2z"/>
  <path fill="#FFFFFF" d="m80.4 48.7v3.1c0 0.4 0.3 0.8 0.8 0.8 2.7 0.5 7.5 1.9 11.6 5 3.1 2.3 0.6 7-3.3 5.1-3.1-2.1-7.5-4.2-14.1-4.3-5.3 0-9.5 1.6-13.6 4.3-3.6 1.9-6.8-2.3-3.9-4.8 2.6-1.8 6.5-4.1 11.5-5.2 0.4 0 0.7-0.4 0.7-0.9v-3.1h10.3z"/>
  <path fill="#5DD39E" d="m82.1 10h-11.2c-2.7 0-4.6 2.2-4.6 4.5v21.5h15.8c3.4 0 6.1-2.4 6.1-6v-14.1c0-3-2.7-5.9-6.1-5.9z"/>
</svg>
